<svg xmlns="http://www.w3.org/2000/svg" width="24.271" height="18.5" viewBox="0 0 24.271 18.5">
  <g id="Group_20" data-name="Group 20" transform="translate(-115.385 412.47)">
    <g id="Group_19" data-name="Group 19" transform="translate(115.385 -412.47)">
      <path id="Path_34" data-name="Path 34" d="M135.931-410.936a20.014,20.014,0,0,0-4.94-1.532.075.075,0,0,0-.079.037,13.961,13.961,0,0,0-.615,1.264,18.478,18.478,0,0,0-5.549,0,12.824,12.824,0,0,0-.625-1.264.077.077,0,0,0-.079-.037,19.954,19.954,0,0,0-4.94,1.532.07.07,0,0,0-.032.028,20.483,20.483,0,0,0-3.586,13.815.084.084,0,0,0,.031.057,20.131,20.131,0,0,0,6.061,3.064.079.079,0,0,0,.085-.028,14.384,14.384,0,0,0,1.24-2.017.076.076,0,0,0-.042-.107,13.265,13.265,0,0,1-1.893-.9.078.078,0,0,1-.008-.129c.127-.1.255-.195.376-.295a.076.076,0,0,1,.079-.011,14.353,14.353,0,0,0,12.2,0,.076.076,0,0,1,.08.01c.121.1.249.2.377.3a.078.078,0,0,1-.007.129,12.462,12.462,0,0,1-1.894.9.077.077,0,0,0-.041.108A16.14,16.14,0,0,0,133.364-394a.077.077,0,0,0,.085.029,20.06,20.06,0,0,0,6.07-3.064.078.078,0,0,0,.032-.056,20.351,20.351,0,0,0-3.589-13.815A.061.061,0,0,0,135.931-410.936ZM123.5-399.851a2.332,2.332,0,0,1-2.181-2.446,2.32,2.32,0,0,1,2.181-2.446,2.307,2.307,0,0,1,2.181,2.446A2.32,2.32,0,0,1,123.5-399.851Zm8.065,0a2.332,2.332,0,0,1-2.181-2.446,2.32,2.32,0,0,1,2.181-2.446,2.307,2.307,0,0,1,2.181,2.446A2.314,2.314,0,0,1,131.56-399.851Z" transform="translate(-115.385 412.47)" fill="#fff"/>
    </g>
  </g>
</svg>
