<svg xmlns="http://www.w3.org/2000/svg" width="55.05" height="59.199" viewBox="0 0 55.05 59.199">
  <g id="vector" transform="translate(-22.64 -18.56)">
    <g id="Group_5" data-name="Group 5" transform="translate(40.397 41.738)">
      <g id="Group_4" data-name="Group 4">
        <g id="Group_3" data-name="Group 3">
          <g id="Group_1" data-name="Group 1" transform="translate(0.001)">
            <path id="Path_1" data-name="Path 1" d="M286.832,356.45v1.043h-2.076v6.756h-1.279v-6.756H281.39V356.45Z" transform="translate(-281.39 -356.438)" fill="#fff"/>
            <path id="Path_2" data-name="Path 2" d="M374.452,362.5h-3.265l-.561,1.594H369.29l2.794-7.811h1.482l2.795,7.811h-1.347Zm-.36-1.044-1.268-3.624-1.279,3.624Z" transform="translate(-363.257 -356.28)" fill="#fff"/>
            <path id="Path_3" data-name="Path 3" d="M500.538,364.249l-3.019-3.49v3.49H496.24v-7.8h1.279v3.558l3.03-3.558h1.605l-3.389,3.905,3.445,3.895h-1.673Z" transform="translate(-481.495 -356.438)" fill="#fff"/>
            <path id="Path_4" data-name="Path 4" d="M607.079,356.45v4.971a1.769,1.769,0,0,0,.466,1.335,1.773,1.773,0,0,0,3.07-1.335V356.45h1.28V361.4a2.992,2.992,0,0,1-.415,1.616,2.575,2.575,0,0,1-1.111.988,3.6,3.6,0,0,1-1.538.325A3.558,3.558,0,0,1,607.3,364a2.514,2.514,0,0,1-1.094-.988,3.049,3.049,0,0,1-.4-1.616V356.45Z" transform="translate(-583.536 -356.438)" fill="#fff"/>
          </g>
          <g id="Group_2" data-name="Group 2" transform="translate(0 11.603)">
            <path id="Path_5" data-name="Path 5" d="M285.431,534.639l-1.8-3.12h-.976v3.12H281.38v-7.8h2.693a3.362,3.362,0,0,1,1.521.314,2.188,2.188,0,0,1,.932.842,2.3,2.3,0,0,1,.308,1.178,2.331,2.331,0,0,1-.443,1.386,2.249,2.249,0,0,1-1.363.848l1.93,3.232Zm-2.772-4.141h1.414a1.485,1.485,0,0,0,1.083-.359,1.294,1.294,0,0,0,.365-.965,1.245,1.245,0,0,0-.36-.948,1.526,1.526,0,0,0-1.088-.342h-1.414Z" transform="translate(-281.38 -526.738)" fill="#fff"/>
            <path id="Path_6" data-name="Path 6" d="M392.539,526.84v7.8H391.26v-7.8Z" transform="translate(-383.719 -526.738)" fill="#fff"/>
            <path id="Path_7" data-name="Path 7" d="M440.822,527.7a2.063,2.063,0,0,0-.842-.881,2.533,2.533,0,0,0-1.246-.3,2.72,2.72,0,0,0-1.38.348,2.434,2.434,0,0,0-.948.987,3.393,3.393,0,0,0,0,2.968,2.424,2.424,0,0,0,.948.993,2.722,2.722,0,0,0,1.38.348,2.439,2.439,0,0,0,1.694-.583,2.54,2.54,0,0,0,.8-1.583H438.3v-1.021h4.3v1a3.851,3.851,0,0,1-3.86,3.345,4.034,4.034,0,0,1-2.009-.511,3.816,3.816,0,0,1-1.442-1.419,4.223,4.223,0,0,1,0-4.108,3.8,3.8,0,0,1,1.448-1.42,4.256,4.256,0,0,1,4.219.1,3.481,3.481,0,0,1,1.408,1.734h-1.537Z" transform="translate(-424.224 -525.35)" fill="#fff"/>
            <path id="Path_8" data-name="Path 8" d="M575.189,526.84v7.8H573.91v-7.8Z" transform="translate(-553.834 -526.738)" fill="#fff"/>
            <path id="Path_9" data-name="Path 9" d="M630.019,534.481h-1.28l-3.85-5.824v5.824H623.61V526.67h1.279l3.85,5.813V526.67h1.28Z" transform="translate(-600.123 -526.579)" fill="#fff"/>
            <path id="Path_10" data-name="Path 10" d="M746.636,533.074a2.321,2.321,0,0,1-.988-.78,1.985,1.985,0,0,1-.359-1.178h1.369a1.237,1.237,0,0,0,.4.83,1.409,1.409,0,0,0,.993.325,1.53,1.53,0,0,0,1.032-.32,1.039,1.039,0,0,0,.371-.825.9.9,0,0,0-.23-.64,1.543,1.543,0,0,0-.572-.382,8.593,8.593,0,0,0-.948-.292,8.711,8.711,0,0,1-1.24-.41,2.057,2.057,0,0,1-.814-.645,1.865,1.865,0,0,1-.336-1.167,2.077,2.077,0,0,1,.336-1.178,2.156,2.156,0,0,1,.942-.775,3.424,3.424,0,0,1,1.4-.269,2.925,2.925,0,0,1,1.857.566,2.093,2.093,0,0,1,.8,1.555H749.24a1.027,1.027,0,0,0-.4-.729,1.5,1.5,0,0,0-.976-.3,1.388,1.388,0,0,0-.9.281.977.977,0,0,0-.348.808.82.82,0,0,0,.219.589,1.542,1.542,0,0,0,.556.365,8.6,8.6,0,0,0,.92.292,9.638,9.638,0,0,1,1.263.426,2.111,2.111,0,0,1,.83.656,1.891,1.891,0,0,1,.342,1.184,2.131,2.131,0,0,1-.32,1.122,2.31,2.31,0,0,1-.932.848,3.078,3.078,0,0,1-1.442.32A3.494,3.494,0,0,1,746.636,533.074Z" transform="translate(-713.452 -525.369)" fill="#fff"/>
          </g>
          <rect id="Rectangle_1" data-name="Rectangle 1" width="37.291" height="0.555" transform="translate(0 9.685)" fill="#fff"/>
        </g>
      </g>
    </g>
    <g id="Group_6" data-name="Group 6" transform="translate(22.64 39.897)">
      <path id="Path_11" data-name="Path 11" d="M60.434,501.522a6.526,6.526,0,0,1-5.017,0,5.8,5.8,0,0,1-1.961-1.39,6.145,6.145,0,0,1-.772-1.051,7.014,7.014,0,0,0-.506,1.054,6.839,6.839,0,0,0-.258.872c.085.1.166.2.256.29a7.7,7.7,0,0,0,2.545,1.71,8.656,8.656,0,0,0,6.422,0,7.708,7.708,0,0,0,2.545-1.71c.09-.092.171-.194.257-.29a6.851,6.851,0,0,0-.258-.872,7.049,7.049,0,0,0-.507-1.054,6.148,6.148,0,0,1-.772,1.051A5.775,5.775,0,0,1,60.434,501.522Z" transform="translate(-49.911 -487.439)" fill="#fff"/>
      <path id="Path_12" data-name="Path 12" d="M24.453,337.4a7.408,7.408,0,0,1,.463-2.648,6.621,6.621,0,0,1,1.278-2.114,5.773,5.773,0,0,1,1.962-1.4c.049-.022.1-.036.152-.057V329.46a7.7,7.7,0,0,0-.85.293,7.613,7.613,0,0,0-2.544,1.721,7.854,7.854,0,0,0-1.668,2.622,9.483,9.483,0,0,0,0,6.623c.053.134.117.259.175.388a7.824,7.824,0,0,1,1.235-1.935A7.757,7.757,0,0,1,24.453,337.4Z" transform="translate(-22.649 -329.46)" fill="#fff"/>
      <path id="Path_13" data-name="Path 13" d="M174.359,331.314a5.734,5.734,0,0,1,1.974,1.4,6.635,6.635,0,0,1,1.278,2.113,7.413,7.413,0,0,1,.463,2.648,7.755,7.755,0,0,1-.2,1.769,7.968,7.968,0,0,1,1.243,1.935c.06-.13.124-.255.178-.39a9.32,9.32,0,0,0,0-6.621,8,8,0,0,0-1.68-2.623,7.624,7.624,0,0,0-2.543-1.721,7.511,7.511,0,0,0-.828-.288v1.729C174.28,331.286,174.321,331.3,174.359,331.314Z" transform="translate(-163.836 -329.535)" fill="#fff"/>
      <path id="Path_14" data-name="Path 14" d="M37.918,441.575a7.968,7.968,0,0,0-1.243-1.935c-.086-.1-.168-.2-.259-.3a7.608,7.608,0,0,0-2.543-1.721,7.5,7.5,0,0,0-.828-.288v1.729c.039.016.08.027.119.044a5.731,5.731,0,0,1,1.974,1.4,6.3,6.3,0,0,1,.771,1.059,7.087,7.087,0,0,1,.507,1.054,6.846,6.846,0,0,1,.258.872,7.772,7.772,0,0,1,.205,1.776,7.416,7.416,0,0,1-.463,2.648,6.5,6.5,0,0,1-1.279,2.1,5.79,5.79,0,0,1-1.972,1.39,6.526,6.526,0,0,1-5.017,0,5.805,5.805,0,0,1-1.961-1.39,6.484,6.484,0,0,1-1.279-2.1,7.407,7.407,0,0,1-.463-2.648,7.762,7.762,0,0,1,.205-1.775,6.8,6.8,0,0,1,.258-.872,7.053,7.053,0,0,1,.506-1.054,6.3,6.3,0,0,1,.771-1.059,5.762,5.762,0,0,1,1.962-1.4c.049-.022.1-.037.152-.057V437.33a7.7,7.7,0,0,0-.85.293,7.615,7.615,0,0,0-2.543,1.721c-.091.094-.172.2-.259.3a7.825,7.825,0,0,0-1.235,1.935c-.058.13-.122.256-.175.39a9.483,9.483,0,0,0,0,6.624,7.777,7.777,0,0,0,1.667,2.6,7.7,7.7,0,0,0,2.545,1.709,8.656,8.656,0,0,0,6.422,0,7.706,7.706,0,0,0,2.545-1.709,7.909,7.909,0,0,0,1.679-2.6,9.318,9.318,0,0,0,0-6.62C38.042,441.832,37.977,441.705,37.918,441.575Z" transform="translate(-22.64 -429.927)" fill="#fff"/>
    </g>
    <g id="Group_7" data-name="Group 7" transform="translate(27.32 18.56)">
      <path id="Path_15" data-name="Path 15" d="M121.3,696.4a6.225,6.225,0,0,1-1.026,1.684V686.252c-.211-.015-.417-.041-.623-.069V699.56l.522-.476a6.857,6.857,0,0,0,2.226-5.05V686.18a9.922,9.922,0,0,1-1.1.093V696.4Z" transform="translate(-117.672 -640.361)" fill="#fff"/>
      <path id="Path_16" data-name="Path 16" d="M119.66,578.37v3.736a5.323,5.323,0,0,0,.623.118v-3.786C120.072,578.424,119.865,578.4,119.66,578.37Z" transform="translate(-117.681 -539.95)" fill="#fff"/>
      <path id="Path_17" data-name="Path 17" d="M143.68,578.423v3.8a5.364,5.364,0,0,0,1.1-.165v-3.73A10.1,10.1,0,0,1,143.68,578.423Z" transform="translate(-140.053 -539.913)" fill="#fff"/>
      <path id="Path_18" data-name="Path 18" d="M93.431,34.609h1.026V53.47a5.373,5.373,0,0,0,1.1-.165v-18.7h1.979v-.623H95.868V18.56H92.5V33.986H90.83v.623h1.979V53.314a5.319,5.319,0,0,0,.623.118V34.609ZM93.12,19.183h2.125v.685H93.8v.609h1.447v.8H93.8v.609h1.447v.8H93.8V23.3h1.447v.8H93.8v.609h1.447v.8H93.8v.609h1.447v.8H93.8v.609h1.447v.8H93.8v.609h1.447v.8H93.8v.609h1.447v.8H93.8v.609h1.447v.8H93.8v.609h1.447v.792H93.12Z" transform="translate(-90.83 -18.56)" fill="#fff"/>
    </g>
  </g>
</svg>
