<svg xmlns="http://www.w3.org/2000/svg" width="61.278" height="225.826" viewBox="0 0 61.278 225.826">
  <g id="vector" transform="translate(-22.64 -18.56)">
    <g id="Group_6" data-name="Group 6" transform="translate(22.64 99.955)">
      <path id="Path_11" data-name="Path 11" d="M84.4,508.4a24.894,24.894,0,0,1-19.138,0,22.146,22.146,0,0,1-7.48-5.3,23.456,23.456,0,0,1-2.945-4.011A26.761,26.761,0,0,0,52.9,503.1a26.084,26.084,0,0,0-.984,3.325c.325.369.634.756.977,1.107a29.361,29.361,0,0,0,9.708,6.521,33.019,33.019,0,0,0,24.5,0,29.4,29.4,0,0,0,9.708-6.521c.343-.351.652-.738.979-1.107a26.121,26.121,0,0,0-.984-3.328,26.9,26.9,0,0,0-1.935-4.021,23.453,23.453,0,0,1-2.945,4.011A22.027,22.027,0,0,1,84.4,508.4Z" transform="translate(-44.254 -454.673)" fill="#fff"/>
      <path id="Path_12" data-name="Path 12" d="M29.528,359.759a28.257,28.257,0,0,1,1.767-10.1,25.259,25.259,0,0,1,4.875-8.064,22.024,22.024,0,0,1,7.485-5.346c.189-.084.39-.139.581-.217V329.46a29.419,29.419,0,0,0-3.241,1.118,29.044,29.044,0,0,0-9.705,6.566,29.961,29.961,0,0,0-6.362,10,36.174,36.174,0,0,0,0,25.267c.2.51.445.99.668,1.482a29.845,29.845,0,0,1,4.71-7.383A29.591,29.591,0,0,1,29.528,359.759Z" transform="translate(-22.647 -329.46)" fill="#fff"/>
      <path id="Path_13" data-name="Path 13" d="M174.7,336.308a21.878,21.878,0,0,1,7.53,5.349,25.311,25.311,0,0,1,4.875,8.061,28.279,28.279,0,0,1,1.767,10.1,29.585,29.585,0,0,1-.778,6.749,30.392,30.392,0,0,1,4.741,7.383c.228-.495.474-.974.681-1.487a35.553,35.553,0,0,0,0-25.256A30.518,30.518,0,0,0,187.1,337.2a29.085,29.085,0,0,0-9.7-6.566,28.673,28.673,0,0,0-3.157-1.1v6.6C174.392,336.2,174.549,336.242,174.7,336.308Z" transform="translate(-134.551 -329.519)" fill="#fff"/>
      <path id="Path_14" data-name="Path 14" d="M80.92,453.523a30.392,30.392,0,0,0-4.741-7.383c-.33-.377-.641-.77-.987-1.126a29.02,29.02,0,0,0-9.7-6.566,28.657,28.657,0,0,0-3.157-1.1v6.6c.149.06.3.1.453.168a21.862,21.862,0,0,1,7.529,5.348,24.015,24.015,0,0,1,2.94,4.04,27.019,27.019,0,0,1,1.935,4.021,26.135,26.135,0,0,1,.984,3.328,29.645,29.645,0,0,1,.783,6.773,28.289,28.289,0,0,1-1.767,10.1,24.782,24.782,0,0,1-4.88,8.024,22.088,22.088,0,0,1-7.524,5.3,24.893,24.893,0,0,1-19.138,0,22.146,22.146,0,0,1-7.48-5.3,24.731,24.731,0,0,1-4.88-8.024,28.255,28.255,0,0,1-1.767-10.1,29.61,29.61,0,0,1,.783-6.773,25.956,25.956,0,0,1,.984-3.325,26.878,26.878,0,0,1,1.932-4.021,24.02,24.02,0,0,1,2.94-4.04,21.978,21.978,0,0,1,7.485-5.348c.188-.084.39-.141.581-.217V437.33a29.4,29.4,0,0,0-3.241,1.118,29.046,29.046,0,0,0-9.7,6.566c-.348.359-.657.751-.987,1.128a29.848,29.848,0,0,0-4.71,7.383c-.223.495-.466.977-.668,1.49a36.174,36.174,0,0,0,0,25.267,29.668,29.668,0,0,0,6.359,9.917,29.358,29.358,0,0,0,9.708,6.521,31.506,31.506,0,0,0,12.25,2.356,31.515,31.515,0,0,0,12.25-2.356,29.4,29.4,0,0,0,9.708-6.521,30.163,30.163,0,0,0,6.406-9.922,35.546,35.546,0,0,0,0-25.253C81.394,454.5,81.148,454.02,80.92,453.523Z" transform="translate(-22.64 -409.089)" fill="#fff"/>
    </g>
    <g id="Group_7" data-name="Group 7" transform="translate(40.492 18.56)">
      <path id="Path_15" data-name="Path 15" d="M125.941,725.171a23.749,23.749,0,0,1-3.914,6.424V686.452c-.8-.057-1.592-.154-2.377-.261v51.031l1.99-1.817a26.158,26.158,0,0,0,8.493-19.266V686.18a37.955,37.955,0,0,1-4.194.353v38.637Z" transform="translate(-112.105 -511.395)" fill="#fff"/>
      <path id="Path_16" data-name="Path 16" d="M119.66,578.37v14.253a20.324,20.324,0,0,0,2.377.45V578.632C121.233,578.574,120.443,578.477,119.66,578.37Z" transform="translate(-112.112 -431.81)" fill="#fff"/>
      <path id="Path_17" data-name="Path 17" d="M143.68,578.684V593.19a20.473,20.473,0,0,0,4.194-.631V578.33A38.586,38.586,0,0,1,143.68,578.684Z" transform="translate(-129.844 -431.781)" fill="#fff"/>
      <path id="Path_18" data-name="Path 18" d="M100.752,79.783h3.914v71.949a20.494,20.494,0,0,0,4.194-.631V79.783h7.548V77.405h-6.359V18.56H97.189V77.405H90.83v2.377h7.548v71.354a20.288,20.288,0,0,0,2.377.45v-71.8ZM99.566,20.937h8.108V23.55h-5.521v2.325h5.521v3.063h-5.521v2.325h5.521v3.066h-5.521v2.325h5.521v3.066h-5.521v2.325h5.521v3.066h-5.521v2.325h5.521V50.5h-5.521v2.325h5.521v3.066h-5.521v2.325h5.521v3.066h-5.521v2.325h5.521v3.066h-5.521V69h5.521v3.066h-5.521v2.325h5.521v3.021H99.566Z" transform="translate(-90.83 -18.56)" fill="#fff"/>
    </g>
  </g>
</svg>
