<svg xmlns="http://www.w3.org/2000/svg" width="24.64" height="20" viewBox="0 0 24.64 20">
  <g id="Group_21" data-name="Group 21" transform="translate(151 261.882)">
    <path id="Path_35" data-name="Path 35" d="M-141.742-241.882h-2.907a.427.427,0,0,0-.06-.015,14.29,14.29,0,0,1-2.334-.437,14.316,14.316,0,0,1-2.949-1.174c-.342-.182-.673-.385-1.008-.581v-.021c.209.019.417.048.626.056a11,11,0,0,0,2.29-.127,10.166,10.166,0,0,0,4.432-1.917c.029-.022.066-.037.078-.077-.026-.028-.059-.019-.088-.021a5.061,5.061,0,0,1-2.272-.672,5.036,5.036,0,0,1-2.261-2.713c-.048-.132-.04-.141.092-.12a5.107,5.107,0,0,0,1.773-.022,1.056,1.056,0,0,0,.284-.073c-.016-.033-.043-.032-.065-.038a4.964,4.964,0,0,1-2.43-1.364,4.985,4.985,0,0,1-1.473-3.491c0-.139.006-.144.127-.082a5.04,5.04,0,0,0,1.683.527,1.2,1.2,0,0,0,.407.019c-.017-.044-.052-.056-.079-.076a5.046,5.046,0,0,1-1.532-1.781,5.013,5.013,0,0,1-.539-2.856,4.907,4.907,0,0,1,.606-1.923c.054-.1.065-.1.135-.013a14.7,14.7,0,0,0,1.317,1.391,14.467,14.467,0,0,0,1.907,1.489,14.316,14.316,0,0,0,4.211,1.87,14.82,14.82,0,0,0,2.743.442c.163.011.168,0,.137-.152a5.122,5.122,0,0,1-.052-1.651,5.084,5.084,0,0,1,3.812-4.259c.268-.065.541-.1.811-.139h.8c.03.006.06.014.09.018a5,5,0,0,1,3.064,1.439.317.317,0,0,0,.334.1,10.347,10.347,0,0,0,2.893-1.118c.033-.019.063-.052.121-.039a5.214,5.214,0,0,1-2.133,2.745,10.223,10.223,0,0,0,2.787-.747.17.17,0,0,1-.027.074,10.358,10.358,0,0,1-1.114,1.363,10.151,10.151,0,0,1-1.256,1.1c-.05.037-.1.072-.092.148a11.061,11.061,0,0,1,0,1.184,13.882,13.882,0,0,1-.3,2.317,15.123,15.123,0,0,1-1.947,4.833,14.321,14.321,0,0,1-2.692,3.2A13.4,13.4,0,0,1-137.356-243a13.9,13.9,0,0,1-3.519,1C-141.164-241.956-141.453-241.921-141.742-241.882Z" fill="#fff"/>
  </g>
</svg>
