<svg xmlns="http://www.w3.org/2000/svg" xmlns:xlink="http://www.w3.org/1999/xlink" width="32.5" height="27.327" viewBox="0 0 32.5 27.327">
  <defs>
    <clipPath id="clip-path">
      <rect id="Rectangle_185" data-name="Rectangle 185" width="32.5" height="27.327" fill="currentColor"/>
    </clipPath>
  </defs>
  <g id="Group_113" data-name="Group 113" transform="translate(0 0)">
    <g id="Group_112" data-name="Group 112" transform="translate(0 0)" clip-path="url(#clip-path)">
      <path id="Path_88" data-name="Path 88" d="M.109,10.131a36.244,36.244,0,0,0,.515,3.825,4.579,4.579,0,0,1,5.254-2.476c-.119-.19-.222-.389-.331-.585a8.417,8.417,0,0,0-3.3-1.06,5.436,5.436,0,0,0-2.135.3" transform="translate(-0.014 -1.278)" fill="currentColor"/>
      <path id="Path_89" data-name="Path 89" d="M4.593,17.167a5.468,5.468,0,0,1,1.968-1.154,6.876,6.876,0,0,1,2.995-.332,11.452,11.452,0,0,0-1.212-1.387c-.259-.251-.5-.523-.732-.794a6.971,6.971,0,0,0-3.02,3.667" transform="translate(-0.598 -1.757)" fill="currentColor"/>
      <path id="Path_90" data-name="Path 90" d="M10.939,18.653c-.015-.033-.031-.068-.045-.1a11.569,11.569,0,0,0-.732-1.41,5.834,5.834,0,0,0-3.4.146,4.662,4.662,0,0,0-2.655,2.256,12.045,12.045,0,0,0,1.406,7.463c.134.17.269.339.411.5A8.273,8.273,0,0,1,6.982,21.9a7.477,7.477,0,0,1,3.957-3.247" transform="translate(-0.522 -2.207)" fill="currentColor"/>
      <path id="Path_91" data-name="Path 91" d="M3,17.964a7.7,7.7,0,0,1,3.405-5.148,3.9,3.9,0,0,0-3.971.682,4.088,4.088,0,0,0-1.3,2.622c.307,1.347.661,2.676,1.041,3.959a21.35,21.35,0,0,0,.683,2.186A14.673,14.673,0,0,1,3,17.964" transform="translate(-0.148 -1.635)" fill="currentColor"/>
      <path id="Path_92" data-name="Path 92" d="M2.295,7.689a8.507,8.507,0,0,1,2.63.666c-.083-.2-.178-.389-.25-.591-.351-.917.672-.608,1.653-.49.338.041,1.424-.85,1.56-1.069.308-.5-.01-.769.666-1.333,1.666-1.388,1.479-1.768.333-2.831C8.211,1.435,6.055-.568,4.91.156,1.28,2.818.049,3.185,0,6.261c-.01.557,0,1.119.03,1.684a6.311,6.311,0,0,1,2.262-.257" transform="translate(0 0)" fill="currentColor"/>
      <path id="Path_93" data-name="Path 93" d="M33.019,8.936C31.8,6.105,27.8,2.749,22.637,6.327a6.957,6.957,0,0,0-2.724,5.722c-3.272.108-7.492,2.662-8.176,5.887-.012-.025-.021-.044-.032-.07a6.644,6.644,0,0,0-3.575,2.9,7.812,7.812,0,0,0-.658,6.276,9.5,9.5,0,0,0,.991.723,2.156,2.156,0,0,0,1.183.16c.9-.061,2.239-.791,3.132-.779,3.141.112,6.084.779,9.8-1.387A11.572,11.572,0,0,0,27.4,19.4a2.275,2.275,0,0,1,1.118-1.3c4.168-1.669,5.723-6.333,4.5-9.165" transform="translate(-0.924 -0.621)" fill="currentColor"/>
    </g>
  </g>
</svg>
