<svg  xmlns="http://www.w3.org/2000/svg" xmlns:xlink="http://www.w3.org/1999/xlink" width="21.145" height="45.448" viewBox="0 0 21.145 45.448">
  <defs>
    <clipPath id="clip-path">
      <rect id="Rectangle_178" data-name="Rectangle 178" width="21.145" height="45.448" fill="current"/>
    </clipPath>
  </defs>
  <g id="Group_90" data-name="Group 90" transform="translate(0 0)">
    <g id="Group_89" data-name="Group 89" transform="translate(0 0)" clip-path="url(#clip-path)">
      <path id="Path_59" data-name="Path 59" d="M8.1,9.458a4.729,4.729,0,1,0-4.73-4.73A4.73,4.73,0,0,0,8.1,9.458" transform="translate(2.472 -0.001)" fill="current"/>
      <path id="Path_60" data-name="Path 60" d="M19.955,12.443A6.886,6.886,0,0,0,13.1,6.221H8.037a6.888,6.888,0,0,0-6.855,6.222L.01,24.521a2.111,2.111,0,0,0,1.7,2.333,2.057,2.057,0,0,0,2.345-1.818L5.238,14.4l-.5,24.347a2.037,2.037,0,0,0,4.069.189l.607-12.766a1.156,1.156,0,0,1,2.309,0l.607,12.766a2.032,2.032,0,0,0,1.932,1.939,1.878,1.878,0,0,0,.2,0A2.035,2.035,0,0,0,16.4,38.749l-.5-24.541,1.185,10.828a2.037,2.037,0,0,0,2.024,1.84c.036,0,.073,0,.108,0a2.058,2.058,0,0,0,1.92-2.263Z" transform="translate(0 4.569)" fill="current"/>
    </g>
  </g>
</svg>
