<svg xmlns="http://www.w3.org/2000/svg" xmlns:xlink="http://www.w3.org/1999/xlink" width="28.909" height="27.5" viewBox="0 0 28.909 27.5">
  <defs>
    <clipPath id="clip-path">
      <rect id="Rectangle_176" data-name="Rectangle 176" width="28.909" height="27.5" fill="current"/>
    </clipPath>
  </defs>
  <g id="Group_86" data-name="Group 86" transform="translate(0 0)">
    <g id="Group_85" data-name="Group 85" transform="translate(0 0)" clip-path="url(#clip-path)">
      <path id="Path_56" data-name="Path 56" d="M19.752.046a.623.623,0,0,0-.8.337,4.971,4.971,0,0,1-4.495,2.861A4.973,4.973,0,0,1,9.96.386a.623.623,0,0,0-.8-.337L.093,3.87a.156.156,0,0,0-.08.2C.978,6.294,1.9,8.422,2.825,10.549a.153.153,0,0,0,.2.08L6.035,9.395V27.5h16.9V9.445l2.945,1.171a.145.145,0,0,0,.187-.084L28.9,4.06a.153.153,0,0,0-.08-.2L19.752.046" transform="translate(0 0.001)" fill="currentColor"/>
    </g>
  </g>
</svg>
