<svg id="Group_105" data-name="Group 105" xmlns="http://www.w3.org/2000/svg" xmlns:xlink="http://www.w3.org/1999/xlink" width="37.782" height="24.267" viewBox="0 0 37.782 24.267">
  <defs>
    <clipPath id="clip-path">
      <rect id="Rectangle_181" data-name="Rectangle 181" width="37.782" height="24.267" fill="currentColor"/>
    </clipPath>
  </defs>
  <g id="Group_104" data-name="Group 104" transform="translate(0 0)" clip-path="url(#clip-path)">
    <path id="Path_81" data-name="Path 81" d="M32.48,22.082l-3.6-1.7,8.906-3.607a23.914,23.914,0,0,0-4.949-2.717,28.631,28.631,0,0,0-3.821-.8L35.78,7.842a13.213,13.213,0,0,0-5.414-1.354,25.349,25.349,0,0,0-5.574.16L28.056.118A11.807,11.807,0,0,0,20.093,1.87a11.965,11.965,0,0,0-4.517,4.575,11.2,11.2,0,0,0-4.4-3.3c-3.106-1.354-7.327-.4-7.327-.4L7.91,9.673S3.391,9.846.686,12.26c-.012.037-.025.076-.036.114a35.575,35.575,0,0,1,3.978,2.776S0,17.486,0,17.514c2.873,1.274,7.9,3.658,7.9,3.658L5.122,22.255s3.638,1.087,5.842,1.557C8.705,22.653,9.33,18.5,9.33,18.5a19.753,19.753,0,0,0,1.808,2.418c-.569-4.849,1.82-6.4,1.82-6.4l2.947,5.454s.4-1.057,1.154-2.907a6.832,6.832,0,0,1,2.071-2.787l4.015,6.875,2.125-2.158a2.077,2.077,0,0,1,.556,2.309A9.125,9.125,0,0,1,24.5,24.267Z" transform="translate(0 0)" fill="currentColor"/>
  </g>
</svg>
