<svg xmlns="http://www.w3.org/2000/svg" xmlns:xlink="http://www.w3.org/1999/xlink" width="44.042" height="40" viewBox="0 0 44.042 40">
  <defs>
    <clipPath id="clip-path">
      <rect id="Rectangle_174" data-name="Rectangle 174" width="44.042" height="40" fill="currentColor"/>
    </clipPath>
  </defs>
  <g id="Group_82" data-name="Group 82" transform="translate(0 0)">
    <g id="Group_81" data-name="Group 81" transform="translate(0 0)" clip-path="url(#clip-path)">
      <path id="Path_52" data-name="Path 52" d="M0,35.174s7.492.609,16.553-8.451c4.474-4.475,13.309-13.309,13.309-13.309L25.811,9.363,10.638,24.536Z" transform="translate(0 4.817)" fill="currentColor"/>
      <path id="Path_53" data-name="Path 53" d="M23.275,17.127l-.289-.289L34.9,4.928A1.362,1.362,0,0,0,34.9,3L32.288.4a1.359,1.359,0,0,0-1.923,0L18.456,12.307l-.289-.289a.373.373,0,0,0-.527,0l-.527.527a.373.373,0,0,0,0,.527l5.11,5.11a.372.372,0,0,0,.527,0l.526-.526a.373.373,0,0,0,0-.527M30.154,2.513l1.923.548a.225.225,0,0,1,.156.156L32.78,5.14a.226.226,0,0,1-.28.28l-1.923-.547a.23.23,0,0,1-.156-.158l-.548-1.922a.228.228,0,0,1,.282-.282M27.97,4.7l1.922.548a.23.23,0,0,1,.158.156L30.6,7.324a.227.227,0,0,1-.282.28l-1.922-.547a.23.23,0,0,1-.158-.156l-.547-1.923A.228.228,0,0,1,27.97,4.7M25.785,6.882l1.923.547a.23.23,0,0,1,.156.158l.547,1.922a.227.227,0,0,1-.28.282l-1.923-.548a.225.225,0,0,1-.156-.156L25.5,7.162a.226.226,0,0,1,.28-.28M23.6,9.066l1.922.548a.23.23,0,0,1,.158.156l.547,1.923a.227.227,0,0,1-.28.28l-1.923-.547a.225.225,0,0,1-.156-.156l-.548-1.923a.229.229,0,0,1,.282-.282M21.357,11.31l1.923.547a.23.23,0,0,1,.156.158l.547,1.922a.227.227,0,0,1-.28.282l-1.923-.547a.23.23,0,0,1-.156-.158l-.547-1.923a.226.226,0,0,1,.28-.28" transform="translate(8.748 0)" fill="currentColor"/>
    </g>
  </g>
</svg>
